<mxfile host="65bd71144e">
    <diagram id="3xNsC1fmLV_M-1-1Ae4D" name="Page-1">
        <mxGraphModel dx="1058" dy="787" grid="0" gridSize="10" guides="1" tooltips="1" connect="1" arrows="1" fold="1" page="1" pageScale="1" pageWidth="850" pageHeight="1100" background="#000000" math="0" shadow="0">
            <root>
                <mxCell id="0"/>
                <mxCell id="1" parent="0"/>
                <mxCell id="2" value="&lt;table border=&quot;1&quot; width=&quot;100%&quot; height=&quot;100%&quot; cellpadding=&quot;4&quot; style=&quot;width:100%;height:100%;border-collapse:collapse;&quot;&gt;&lt;tbody&gt;&lt;tr&gt;&lt;th align=&quot;center&quot;&gt;&lt;b&gt;user&lt;/b&gt;&lt;/th&gt;&lt;/tr&gt;&lt;tr&gt;&lt;td&gt;id : int&lt;br&gt;email : varchar&lt;br&gt;roles : json&lt;br&gt;password : varchar&lt;br&gt;username : varchar&lt;/td&gt;&lt;/tr&gt;&lt;tr&gt;&lt;td&gt;signup()&lt;br&gt;login()&lt;br&gt;logout()&lt;br&gt;editAccout()&lt;/td&gt;&lt;/tr&gt;&lt;/tbody&gt;&lt;/table&gt;" style="text;html=1;whiteSpace=wrap;strokeColor=#006EAF;fillColor=#1ba1e2;overflow=fill;fontColor=#ffffff;" parent="1" vertex="1">
                    <mxGeometry x="130" y="140" width="160" height="170" as="geometry"/>
                </mxCell>
                <mxCell id="3" value="&lt;table border=&quot;1&quot; width=&quot;100%&quot; height=&quot;100%&quot; cellpadding=&quot;4&quot; style=&quot;width:100%;height:100%;border-collapse:collapse;&quot;&gt;&lt;tbody&gt;&lt;tr&gt;&lt;th align=&quot;center&quot;&gt;&lt;b&gt;task&lt;/b&gt;&lt;/th&gt;&lt;/tr&gt;&lt;tr&gt;&lt;td&gt;id : int&lt;br&gt;author_id : int (user)&lt;br&gt;created_at : datetime&lt;br&gt;title : varchar&lt;br&gt;content : varchar&lt;br&gt;is_done : tinyint (bool)&lt;/td&gt;&lt;/tr&gt;&lt;tr&gt;&lt;td&gt;createTask()&lt;br&gt;updateTask()&lt;br&gt;deleteTask()&lt;br&gt;updateTaskStatus()&lt;/td&gt;&lt;/tr&gt;&lt;/tbody&gt;&lt;/table&gt;" style="text;html=1;whiteSpace=wrap;strokeColor=#006EAF;fillColor=#1ba1e2;overflow=fill;fontColor=#ffffff;" parent="1" vertex="1">
                    <mxGeometry x="480" y="130" width="160" height="190" as="geometry"/>
                </mxCell>
                <mxCell id="7" value="" style="line;strokeWidth=2;html=1;" parent="1" vertex="1">
                    <mxGeometry x="290" y="220" width="190" height="10" as="geometry"/>
                </mxCell>
                <mxCell id="8" value="1" style="text;html=1;align=center;verticalAlign=middle;resizable=0;points=[];autosize=1;strokeColor=none;fillColor=none;" parent="1" vertex="1">
                    <mxGeometry x="285" y="200" width="30" height="30" as="geometry"/>
                </mxCell>
                <mxCell id="9" value="*" style="text;html=1;align=center;verticalAlign=middle;resizable=0;points=[];autosize=1;strokeColor=none;fillColor=none;fontSize=16;fontStyle=0" parent="1" vertex="1">
                    <mxGeometry x="455" y="203" width="30" height="30" as="geometry"/>
                </mxCell>
            </root>
        </mxGraphModel>
    </diagram>
</mxfile>